<?xml version="1.0" encoding="utf-8"?>
<!-- Generator: Adobe Illustrator 15.0.0, SVG Export Plug-In . SVG Version: 6.00 Build 0)  -->
<!DOCTYPE svg PUBLIC "-//W3C//DTD SVG 1.1//EN" "http://www.w3.org/Graphics/SVG/1.1/DTD/svg11.dtd">
<svg version="1.1" id="Layer_1" xmlns="http://www.w3.org/2000/svg" xmlns:xlink="http://www.w3.org/1999/xlink" x="0px" y="0px"
	 width="168px" height="34px" viewBox="0 0 168 34" enable-background="new 0 0 168 34" xml:space="preserve">
<g>
	<g>
		<path fill="#492F92" d="M11.447,15.759c3.148,0,5.644,0.837,7.485,2.512c1.841,1.675,2.762,3.92,2.762,6.735
			c0,2.583-0.975,4.732-2.924,6.448c-1.816,1.599-4.066,2.399-6.748,2.399H0V15.759H11.447z M12.272,31.154
			c1.799,0,3.277-0.582,4.436-1.744s1.737-2.655,1.737-4.479c0-1.94-0.621-3.504-1.862-4.692c-1.241-1.188-2.87-1.782-4.886-1.782H3
			v12.697H12.272z"/>
		<path fill="#492F92" d="M45.562,33.854H26.617V15.759h18.244v2.698H29.616v4.65h10.597v2.698H29.616v5.349h15.945V33.854z"/>
		<path fill="#492F92" d="M67.056,33.854H50.085V15.759h3v15.396h13.971V33.854z"/>
		<path fill="#492F92" d="M90.849,33.854h-3.281l-2.085-4.049H73.296l-2.086,4.049h-3.28l9.572-18.095h3.774L90.849,33.854z
			 M84.026,27.105l-4.609-8.768l-4.665,8.768H84.026z"/>
		<path fill="#492F92" d="M111.218,33.854h-16.97V15.759h2.999v15.396h13.971V33.854z"/>
		<path fill="#492F92" d="M135.011,33.854h-3.281l-2.084-4.049h-12.189l-2.084,4.049h-3.279l9.57-18.095h3.775L135.011,33.854z
			 M128.188,27.105l-4.609-8.768l-4.666,8.768H128.188z"/>
		<path fill="#492F92" d="M141.408,33.854h-2.999V15.759h2.999V33.854z"/>
		<path fill="#492F92" d="M168,33.854h-3.73l-13.813-14.838v14.838h-2.999V15.759h3.724l13.821,14.847V15.759H168V33.854z"/>
	</g>
	<g>
		<path fill="#492F92" d="M12.576,9.802h-1.777l-1.13-2.193H3.068L1.938,9.802H0.161L5.347,0h2.044L12.576,9.802z M8.88,6.146
			L6.384,1.397L3.856,6.146H8.88z"/>
		<path fill="#492F92" d="M24.042,1.463h-4.685v8.339h-1.624V1.463h-4.685V0h10.993V1.463z"/>
		<path fill="#492F92" d="M36.211,9.802h-10.26V0h9.882v1.463h-8.258V3.98h5.74v1.462h-5.74V8.34h8.636V9.802z"/>
		<path fill="#492F92" d="M47.854,9.802h-9.192V0h1.625v8.34h7.567V9.802z"/>
		<path fill="#492F92" d="M51.388,9.802h-1.624V0h1.624V9.802z"/>
		<path fill="#492F92" d="M64.926,9.802H54.664V0h9.883v1.463h-8.259V3.98h5.74v1.462h-5.74V8.34h8.638V9.802z"/>
		<path fill="#492F92" d="M78.49,9.802h-1.89l-2.653-3.736H69v3.736h-1.624V0h7.729c1.03,0,1.837,0.278,2.424,0.834
			c0.587,0.555,0.88,1.306,0.88,2.253c0,0.831-0.239,1.499-0.719,2.004c-0.441,0.47-1.05,0.768-1.827,0.894L78.49,9.802z
			 M74.861,4.603c1.256,0,1.883-0.504,1.883-1.516c0-1.082-0.678-1.624-2.031-1.624H69v3.14H74.861z"/>
	</g>
</g>
</svg>
